<?xml version="1.0" standalone="no"?>
<!DOCTYPE svg PUBLIC "-//W3C//DTD SVG 20010904//EN"
 "http://www.w3.org/TR/2001/REC-SVG-20010904/DTD/svg10.dtd">
<svg version="1.0" xmlns="http://www.w3.org/2000/svg"
 width="380.000000pt" height="162.000000pt" viewBox="0 0 380.000000 162.000000"
 preserveAspectRatio="xMidYMid meet">

<g transform="translate(0.000000,162.000000) scale(0.100000,-0.100000)"
fill="#000000" stroke="none">
<path d="M695 1495 c-19 -55 -26 -81 -55 -210 -42 -186 -44 -191 -101 -287
l-49 -83 45 -22 44 -23 0 -193 1 -192 -96 -40 c-53 -22 -98 -43 -101 -48 -3
-5 -2 -57 2 -117 l7 -108 92 -4 c50 -3 158 -2 240 0 l149 5 -7 103 -7 104 28
29 c21 21 49 33 103 46 69 16 172 17 1327 16 1115 -2 1253 0 1253 13 0 14
-139 16 -1253 16 -861 0 -1272 -3 -1313 -11 -77 -14 -130 -42 -155 -82 -18
-28 -20 -42 -14 -123 l6 -90 -209 -2 -209 -1 -6 92 c-7 108 -12 102 111 149
l84 33 -5 214 -6 214 -32 14 c-18 8 -35 15 -36 17 -2 2 15 34 38 70 30 48 49
96 66 164 14 53 32 129 42 167 l17 70 18 -75 c10 -41 26 -119 37 -172 14 -74
28 -112 57 -159 36 -60 62 -84 62 -59 0 6 -18 42 -40 80 -41 71 -42 74 -104
385 -16 81 -26 113 -31 100z"/>
<path d="M1388 1424 c-66 -320 -77 -362 -102 -406 -15 -26 -32 -50 -37 -53
-11 -7 -12 -35 -1 -35 4 1 26 33 49 73 36 63 45 90 68 217 14 80 28 153 31
163 10 31 23 18 29 -30 16 -110 73 -299 109 -357 20 -33 36 -64 36 -68 0 -5
-16 -16 -35 -25 -39 -19 -48 -38 -12 -27 35 10 77 34 77 42 0 5 -4 12 -9 18
-5 5 -27 43 -49 84 -36 68 -93 264 -107 365 -2 17 -10 50 -17 74 l-13 45 -17
-80z"/>
<path d="M1037 1135 c-10 -27 -17 -67 -17 -89 0 -23 -9 -55 -20 -73 -15 -25
-16 -33 -6 -33 19 0 46 71 46 120 0 41 14 61 24 34 3 -9 6 -35 6 -59 0 -45 17
-95 32 -95 11 0 10 18 -4 43 -6 12 -10 40 -9 63 1 23 -7 63 -17 89 l-19 48
-16 -48z"/>
<path d="M2127 944 c-4 -4 -7 -30 -7 -58 -1 -84 -18 -189 -40 -249 -26 -70
-50 -77 -50 -14 0 59 10 88 28 85 21 -4 25 14 8 37 -21 30 -41 6 -67 -81 -31
-104 -44 -106 -36 -6 5 65 4 82 -7 82 -18 0 -31 -131 -16 -160 13 -24 45 -26
54 -3 6 14 8 14 22 -5 20 -29 38 -28 62 5 l19 26 7 -27 c10 -40 28 -27 47 35
l17 54 1 -40 c2 -53 13 -69 42 -62 15 4 30 0 41 -10 17 -15 19 -15 36 0 12 11
22 13 32 7 8 -5 19 -10 23 -10 11 0 44 77 52 123 11 59 24 43 27 -34 2 -57 7
-74 22 -83 14 -9 20 -8 29 5 10 15 12 15 29 -5 l18 -21 20 24 c20 23 21 23 35
5 15 -18 16 -18 35 4 19 22 50 109 50 139 0 33 -18 7 -39 -57 -12 -38 -25 -70
-28 -70 -9 0 6 206 21 282 13 69 12 78 -9 78 -8 0 -15 -30 -21 -82 -8 -76 -11
-83 -34 -88 -21 -5 -30 -20 -55 -92 -16 -48 -33 -90 -37 -94 -5 -4 -8 25 -8
64 0 58 -3 73 -19 84 -11 8 -21 26 -23 41 -5 46 -23 30 -24 -21 -1 -48 -29
-149 -46 -167 -7 -7 -9 14 -6 60 4 64 3 72 -20 93 -32 30 -45 19 -73 -66 -12
-37 -25 -71 -29 -76 -15 -15 -20 29 -12 97 8 60 6 69 -9 77 -15 9 -19 3 -28
-38 -5 -26 -14 -58 -20 -72 -8 -21 -10 -14 -10 40 0 36 4 97 9 135 6 39 11 79
13 89 2 19 -14 32 -26 20z m429 -286 c-26 -95 -38 -106 -33 -27 5 73 22 118
40 100 7 -7 5 -29 -7 -73z m-266 -35 c-12 -53 -30 -72 -30 -30 1 25 17 105 27
127 13 29 15 -44 3 -97z"/>
<path d="M3422 927 c-7 -8 -10 -16 -7 -18 10 -10 -15 -195 -35 -252 -27 -81
-44 -104 -64 -88 -14 11 -12 19 9 62 29 56 33 114 9 123 -25 9 -30 1 -54 -75
-12 -40 -29 -83 -37 -96 -14 -21 -18 -22 -30 -10 -13 13 -12 20 5 53 11 22 22
56 26 76 5 30 3 39 -12 47 -28 15 -38 2 -61 -74 -38 -127 -61 -126 -53 1 4 64
2 74 -12 74 -9 0 -16 -8 -16 -17 0 -28 -32 -133 -41 -133 -5 0 -5 30 -2 66 5
55 4 66 -8 62 -13 -4 -15 -15 -18 -77 -1 -23 -2 -23 -19 -8 -10 9 -49 29 -87
44 -88 36 -104 59 -85 127 17 62 50 86 88 65 19 -10 29 -27 35 -57 9 -45 29
-53 35 -13 2 14 -9 34 -33 58 -31 31 -40 35 -72 30 -45 -8 -70 -30 -82 -73
-20 -74 25 -139 112 -164 79 -22 99 -68 40 -91 -20 -8 -52 -8 -108 -2 -44 5
-82 9 -83 7 -2 -1 11 -10 29 -20 22 -11 59 -17 107 -18 68 -1 75 1 97 26 18
21 25 24 29 13 11 -29 35 -15 47 25 15 49 29 52 29 6 0 -43 21 -63 44 -41 9 9
16 22 16 28 0 7 12 -3 26 -20 31 -40 38 -40 66 -8 21 24 22 24 35 5 20 -29 59
-25 80 7 l18 27 5 -29 c3 -16 10 -28 15 -27 10 2 11 8 14 45 1 20 31 23 31 3
0 -19 27 -46 46 -46 16 0 56 82 69 138 12 56 -11 35 -28 -25 -9 -32 -23 -67
-31 -78 -14 -17 -17 -18 -26 -5 -16 24 -12 62 12 107 18 34 21 47 12 60 -18
29 -40 26 -54 -7 -7 -17 -17 -33 -22 -36 -8 -5 -6 18 14 149 10 71 2 101 -20
74z m52 -225 c-9 -20 -18 -43 -21 -49 -3 -7 -10 -13 -15 -13 -6 0 -8 6 -5 13
31 79 40 96 48 91 5 -3 2 -22 -7 -42z m-153 -42 l-10 -25 0 25 c-1 14 3 36 7
50 l7 25 3 -25 c2 -14 -2 -37 -7 -50z m-97 33 c-4 -16 -11 -32 -17 -38 -6 -7
-8 -2 -3 15 3 14 6 31 6 38 0 6 5 12 10 12 6 0 8 -11 4 -27z"/>
<path d="M1680 913 c0 -7 -13 -19 -28 -27 -41 -21 -58 -44 -44 -58 8 -8 12 -8
12 -2 0 9 41 34 56 34 3 0 2 -64 -2 -143 -5 -103 -3 -149 5 -165 14 -27 32
-20 30 11 -1 12 -1 46 -1 75 l2 53 58 -59 c39 -41 69 -64 95 -71 40 -10 67 -6
67 11 0 6 -7 7 -16 4 -25 -10 -82 23 -119 69 -19 23 -35 46 -35 51 0 5 26 20
58 34 31 13 76 42 100 64 50 46 53 77 9 110 -24 17 -42 20 -137 21 -80 0 -110
-3 -110 -12z m230 -28 c19 -23 -10 -78 -57 -108 -36 -23 -129 -54 -137 -46 -2
2 -2 36 1 76 l6 72 36 9 c59 16 137 14 151 -3z"/>
<path d="M1005 912 c-77 -5 -179 -23 -192 -34 -17 -14 -16 -33 3 -52 27 -27
164 -16 164 13 0 6 -16 7 -37 3 -59 -10 -106 -8 -110 5 -5 13 32 23 111 27
l58 3 -7 -156 c-6 -137 -5 -158 9 -170 9 -7 16 -12 16 -10 0 2 3 47 6 99 6
111 20 229 28 237 3 3 39 8 81 12 41 3 75 11 75 16 0 9 -113 13 -205 7z"/>
<path d="M1356 821 c-7 -11 18 -33 27 -24 4 3 7 12 7 20 0 15 -26 18 -34 4z"/>
<path d="M1956 821 c-9 -14 4 -41 20 -41 8 0 14 10 14 25 0 25 -23 35 -34 16z"/>
<path d="M1291 714 c-12 -26 -21 -50 -21 -55 0 -5 -4 -9 -10 -9 -5 0 -10 23
-10 51 0 61 -20 63 -32 3 -12 -59 -38 -124 -50 -124 -7 0 -9 22 -5 65 5 53 3
69 -11 85 -37 44 -61 14 -77 -100 -5 -37 -3 -50 12 -69 17 -21 21 -22 34 -8 9
9 26 13 41 10 25 -5 29 1 53 72 5 15 8 16 14 6 10 -15 8 -55 -3 -88 -4 -14 -3
-23 3 -23 5 0 12 8 16 19 4 13 12 17 29 14 18 -4 29 2 42 23 l18 27 6 -24 c4
-14 14 -25 27 -27 18 -3 24 7 43 62 12 36 20 74 18 83 -2 10 -14 -15 -26 -54
-31 -99 -47 -96 -38 7 4 44 3 80 -1 80 -5 0 -19 -34 -31 -75 -22 -74 -42 -99
-63 -78 -10 10 5 52 47 135 8 16 10 29 5 33 -6 3 -19 -15 -30 -41z m-151 -33
c0 -45 -26 -114 -40 -106 -14 9 -12 39 6 101 17 61 34 63 34 5z"/>
<path d="M1179 446 c-2 -2 -26 -6 -54 -9 -27 -3 -51 -6 -52 -6 -8 -3 -31 -60
-26 -65 14 -14 63 -5 82 16 15 15 36 23 77 26 46 4 61 1 86 -18 17 -12 42 -26
57 -31 21 -7 19 -8 -11 -3 -21 2 -38 1 -38 -4 0 -18 25 -32 57 -32 30 0 33 3
33 29 0 63 -13 78 -83 90 -64 11 -120 14 -128 7z"/>
<path d="M1150 364 c0 -9 -13 -38 -29 -63 -35 -58 -44 -85 -36 -111 6 -20 13
-20 138 -18 l132 3 3 28 c2 18 -9 47 -32 86 -20 32 -36 66 -36 75 0 20 -36 21
-44 1 -3 -8 -17 -15 -31 -15 -16 0 -25 6 -25 15 0 8 -9 15 -20 15 -12 0 -20
-7 -20 -16z m112 -51 c22 -20 23 -70 1 -95 -36 -40 -103 -10 -103 45 0 58 60
88 102 50z"/>
<path d="M1077 353 c-50 -6 -43 -28 9 -28 29 0 40 4 42 18 2 9 0 16 -5 15 -4
-1 -25 -3 -46 -5z"/>
<path d="M1564 335 c-9 -14 -19 -44 -21 -68 -4 -36 -1 -46 22 -70 61 -60 135
-20 135 73 0 59 -29 90 -83 90 -28 0 -40 -6 -53 -25z m86 -13 c35 -28 28 -115
-10 -127 -61 -19 -95 79 -44 129 20 20 27 20 54 -2z"/>
<path d="M1787 348 c-20 -16 -37 -60 -37 -97 0 -41 35 -81 71 -81 51 0 69 16
69 61 0 33 -4 41 -26 51 -19 9 -33 9 -55 1 -23 -9 -29 -9 -29 3 0 16 35 54 51
54 6 0 19 -4 29 -10 13 -7 19 -6 23 4 10 26 -65 37 -96 14z m72 -107 c23 -42
-46 -71 -72 -29 -8 12 -7 21 2 32 18 22 58 20 70 -3z"/>
<path d="M2089 341 c-30 -25 -22 -34 18 -19 36 13 63 5 63 -19 0 -9 -25 -40
-55 -68 -30 -28 -55 -54 -55 -58 0 -4 32 -7 70 -7 40 0 70 4 70 10 0 6 -21 10
-47 10 l-48 0 48 45 c51 50 58 74 27 105 -25 25 -61 26 -91 1z"/>
<path d="M2287 295 c-32 -36 -55 -69 -52 -75 3 -5 28 -10 56 -10 42 0 49 -3
49 -20 0 -11 7 -20 16 -20 8 0 13 4 9 9 -3 5 2 17 12 26 11 12 13 19 5 24 -6
3 -12 33 -14 65 -2 33 -7 61 -13 63 -5 2 -36 -26 -68 -62z m49 -51 c-5 -14
-56 -21 -56 -7 0 3 12 22 28 42 l27 36 3 -28 c2 -16 1 -35 -2 -43z"/>
<path d="M2462 344 c-27 -18 -30 -65 -5 -89 11 -12 28 -16 55 -13 42 4 49 -9
21 -37 -11 -12 -26 -15 -50 -12 -43 7 -51 -7 -13 -23 64 -27 111 19 113 108 0
35 -5 49 -22 64 -28 22 -69 23 -99 2z m83 -49 c0 -26 -4 -30 -32 -33 -27 -3
-33 1 -39 22 -8 35 3 48 39 44 28 -3 32 -7 32 -33z"/>
<path d="M2650 348 c0 -7 -3 -30 -6 -50 l-7 -38 40 0 c50 0 70 -19 53 -50 -11
-21 -30 -23 -79 -9 -31 9 -19 -20 13 -31 53 -17 90 3 94 52 3 30 -1 40 -22 53
-15 10 -33 14 -46 10 -16 -5 -20 -2 -20 19 0 22 5 25 43 28 59 4 52 22 -10 26
-38 2 -53 -1 -53 -10z"/>
<path d="M2851 343 c-46 -37 -46 -149 -1 -173 48 -26 110 2 110 49 0 46 -21
64 -68 59 -45 -4 -52 5 -28 37 10 14 21 17 50 12 26 -4 36 -2 36 7 0 28 -68
34 -99 9z m63 -96 c36 -26 -4 -84 -41 -61 -25 16 -28 45 -7 61 10 7 21 13 24
13 3 0 14 -6 24 -13z"/>
<path d="M3010 340 c0 -5 20 -10 44 -10 25 0 47 -3 50 -8 2 -4 -16 -41 -40
-81 -44 -72 -49 -89 -20 -78 14 5 106 160 106 178 0 5 -31 9 -70 9 -40 0 -70
-4 -70 -10z"/>
<path d="M3205 337 c-28 -21 -10 -40 20 -21 31 20 65 10 65 -20 0 -15 -19 -38
-55 -70 -30 -26 -55 -51 -55 -57 0 -5 32 -9 70 -9 40 0 70 4 70 10 0 6 -21 10
-47 10 l-48 0 49 43 c51 45 62 80 36 112 -16 19 -80 20 -105 2z"/>
<path d="M3395 337 c-30 -22 -9 -39 24 -19 24 14 32 14 45 3 29 -24 18 -50
-39 -94 -30 -23 -55 -48 -55 -54 0 -9 21 -13 70 -13 40 0 70 4 70 10 0 6 -21
10 -47 10 l-48 1 48 40 c39 34 47 47 47 75 0 23 -6 37 -19 44 -27 14 -74 13
-96 -3z"/>
<path d="M1944 261 c-13 -13 1 -21 37 -21 26 0 39 4 37 12 -4 10 -65 18 -74 9z"/>
</g>
</svg>
